<?xml version="1.0" encoding="UTF-8" standalone="no"?>
<svg
   width="55.209202"
   height="55.991894"
   viewBox="0 0 55.209202 55.991894"
   fill="none"
   version="1.1"
   id="svg13"
   sodipodi:docname="react.svg"
   inkscape:version="1.1.2 (0a00cf5339, 2022-02-04)"
   xmlns:inkscape="http://www.inkscape.org/namespaces/inkscape"
   xmlns:sodipodi="http://sodipodi.sourceforge.net/DTD/sodipodi-0.dtd"
   xmlns="http://www.w3.org/2000/svg"
   xmlns:svg="http://www.w3.org/2000/svg">
  <sodipodi:namedview
     id="namedview15"
     pagecolor="#ffffff"
     bordercolor="#666666"
     borderopacity="1.0"
     inkscape:pageshadow="2"
     inkscape:pageopacity="0.0"
     inkscape:pagecheckerboard="0"
     showgrid="false"
     inkscape:zoom="10.9125"
     inkscape:cx="27.44559"
     inkscape:cy="28.132875"
     inkscape:window-width="1028"
     inkscape:window-height="1883"
     inkscape:window-x="7532"
     inkscape:window-y="0"
     inkscape:window-maximized="1"
     inkscape:current-layer="svg13" />
  <g
     clip-path="url(#clip0_1479_21414)"
     id="g6"
     transform="translate(-12.979668,-11.838294)">
    <path
       d="m 45.458,41.5776 c 0.9632,-2.6069 -0.4354,-5.5259 -3.1245,-6.5195 -2.6887,-0.9934 -5.6496,0.3148 -6.6128,2.9217 -0.9633,2.6073 0.4358,5.5262 3.1245,6.5196 2.689,0.9936 5.6495,-0.3146 6.6128,-2.9218 z"
       fill="#53c1de"
       id="path2" />
    <path
       fill-rule="evenodd"
       clip-rule="evenodd"
       d="m 59.6393,36.8569 c 2.5248,-3.671 6.5927,-10.7054 2.9778,-14.9355 -3.5978,-4.2111 -11.294,-1.5326 -15.4875,0.2326 -2.04,-4.0353 -6.3192,-11.1149 -11.8152,-10.2419 -5.4729,0.8694 -6.8045,8.7732 -7.2597,13.2378 -4.6586,-0.3979 -12.8337,-0.568 -14.727,4.5562 -1.8879,5.1097 4.3448,10.5137 8.1184,13.2301 -2.5693,3.7091 -6.5876,10.5003 -2.9869,14.7158 3.6252,4.2425 11.4181,1.7542 15.6523,-0.0323 2.052,4.0924 6.1398,11.0055 11.6159,10.1356 5.4933,-0.8726 7.0466,-8.7216 7.5104,-13.2099 4.5054,0.3396 12.7481,0.3515 14.6124,-4.6944 1.8751,-5.0749 -4.478,-10.2958 -8.2109,-12.9941 z m -6.2331,15.2814 c 0.0924,-2.373 -0.0068,-4.9695 -0.2865,-7.7171 1.9269,-1.8699 3.6436,-3.7624 5.092,-5.6189 2.734,1.9849 8.7026,6.4178 7.3095,10.1882 -1.4062,3.8059 -8.5598,3.4115 -12.115,3.1478 z m -8.1238,13.2314 c -4.0857,0.6488 -7.4328,-5.7545 -8.9506,-8.7706 2.1385,-1.0616 4.3737,-2.3884 6.6493,-3.9381 2.7197,0.7473 5.3467,1.2966 7.792,1.6248 -0.3318,3.1734 -1.3869,10.4319 -5.4907,11.0839 z M 20.3459,56.1254 c -2.6853,-3.1426 1.2625,-9.069 3.1541,-11.8016 2.0561,1.3042 4.401,2.5622 6.9664,3.7461 0.7479,2.6154 1.6288,5.0908 2.6087,7.3358 -2.6486,1.1181 -10.0314,3.8768 -12.7292,0.7197 z M 15.6567,30.5667 c 1.4115,-3.8201 8.7832,-3.3079 12.2198,-3.0104 -0.1126,2.4037 -0.0489,4.9842 0.1905,7.6583 -1.9471,1.9046 -3.6992,3.8546 -5.1923,5.7772 -2.6702,-1.9251 -8.6302,-6.6028 -7.218,-10.4251 z m 20.1025,-16.269 c 4.1028,-0.6516 7.6594,5.9413 9.1428,8.8653 -2.1932,1.0639 -4.4523,2.3631 -6.7037,3.8568 -2.6493,-0.717 -5.2407,-1.2539 -7.6805,-1.5919 0.3681,-3.6005 1.143,-10.4793 5.2414,-11.1302 z m 15.7426,20.4271 c 1.661,0.8556 3.2231,1.7546 4.6601,2.6792 -1.0093,1.2865 -2.159,2.597 -3.427,3.9073 -0.3202,-2.2086 -0.7275,-4.4075 -1.2331,-6.5865 z m -5.5633,-9.3447 c 0.6573,1.5253 1.2677,3.1829 1.821,4.941 -2.1105,-0.8917 -4.2607,-1.6866 -6.4436,-2.3824 1.5598,-0.963 3.1098,-1.8202 4.6226,-2.5586 z m -15.5536,7.6715 c -0.102,-1.8103 -0.1157,-3.5583 -0.0424,-5.2144 1.6803,0.2373 3.4413,0.5744 5.247,1.0036 -1.8029,1.3218 -3.5399,2.7275 -5.2046,4.2108 z m -0.716,11.966 c -1.7141,-0.8529 -3.3014,-1.737 -4.7353,-2.6398 1.0382,-1.3292 2.2101,-2.6766 3.4916,-4.014 0.3067,2.2336 0.7224,4.4545 1.2437,6.6538 z m 5.6281,9.3621 c -0.6771,-1.5628 -1.3063,-3.2472 -1.874,-5.0185 2.1287,0.8799 4.2919,1.6794 6.4854,2.3837 -1.5787,1.0067 -3.1235,1.8899 -4.6114,2.6348 z M 50.8253,46.548 c 0.1337,1.8799 0.1723,3.6649 0.1128,5.3268 -1.7102,-0.2343 -3.521,-0.5832 -5.3966,-1.0385 1.8218,-1.3568 3.5883,-2.7843 5.2838,-4.2883 z m -8.3444,3.4686 c -3.3872,-0.9915 -6.7094,-2.2218 -9.9364,-3.65 -0.8949,-3.3523 -1.5329,-6.7659 -1.9029,-10.2016 2.5059,-2.3664 5.1959,-4.5441 8.045,-6.5083 3.3956,0.9793 6.7223,2.2076 9.938,3.6736 0.8716,3.3387 1.4996,6.7341 1.9078,10.1474 -2.5211,2.359 -5.222,4.5391 -8.0515,6.5389 z m 18.25,-26.5687 c 2.6968,3.1568 -1.3106,9.349 -3.1379,12.0104 -2.075,-1.3419 -4.3922,-2.6261 -6.8774,-3.8103 -0.7341,-2.622 -1.5914,-5.0762 -2.5482,-7.2798 3.0737,-1.2915 9.8928,-4.0463 12.5635,-0.9203 z"
       fill="#53c1de"
       id="path4" />
  </g>
  <defs
     id="defs11">
    <clipPath
       id="clip0_1479_21414">
      <rect
         width="62"
         height="62"
         fill="#ffffff"
         transform="rotate(20.2782,11.11915,62.176758)"
         id="rect8"
         x="0"
         y="0" />
    </clipPath>
  </defs>
</svg>
